# xmcd
#
# Track frame offsets:
#	150
#	21137
#	32585
#	55967
#	73304
#	89252
#	101681
#	130706
#	146581
#	162545
#	176336
#	190770
#
# Disc length: 2732 seconds
#
# Revision: 0
# Processed by: cddbd v1.5.2PL0 Copyright (c) Steve Scherf et al.
# Submitted via: audiograbber 1.83.01
#
DISCID=a30aaa0c
DTITLE=Veta Biris - Mai romane, romanas!
DYEAR=1900
DGENRE=Populara
TTITLE0=Dac-am plecat, Ardealule, din tine...
TTITLE1=Mai romane, romanas!
TTITLE2=Cantecul Iancului
TTITLE3=Tu Ardeal, tu Ardeal
TTITLE4=Nu uita ca esti roman!
TTITLE5=Asa-i romanul
TTITLE6=Cantecul sergentului
TTITLE7=Pe Campia Libertatii
TTITLE8=Treceti, batalioane romane, Carpatii!
TTITLE9=Cantec de la tata
TTITLE10=Din tara motilor
TTITLE11=Veniti la mine, veniti!
EXTD=CD distribuit cu revista Taifasuri
EXTT0=
EXTT1=
EXTT2=
EXTT3=
EXTT4=
EXTT5=
EXTT6=
EXTT7=
EXTT8=
EXTT9=
EXTT10=
EXTT11=
PLAYORDER=
